<?xml version="1.0" encoding="UTF-8"?>
<svg version="1.1" xmlns="http://www.w3.org/2000/svg" width="16" height="16">
<path d="M0 0 C0.9075 0.00257812 1.815 0.00515625 2.75 0.0078125 C4.11125 0.00394531 4.11125 0.00394531 5.5 0 C7.75 0.1328125 7.75 0.1328125 8.75 1.1328125 C8.84909302 3.46441305 8.87970504 5.79911192 8.875 8.1328125 C8.87757812 9.4115625 8.88015625 10.6903125 8.8828125 12.0078125 C8.75 15.1328125 8.75 15.1328125 7.75 16.1328125 C6.08570949 16.23105187 4.41718069 16.26254881 2.75 16.2578125 C1.38875 16.26167969 1.38875 16.26167969 0 16.265625 C-2.25 16.1328125 -2.25 16.1328125 -3.25 15.1328125 C-3.34909302 12.80121195 -3.37970504 10.46651308 -3.375 8.1328125 C-3.37757812 6.8540625 -3.38015625 5.5753125 -3.3828125 4.2578125 C-3.2099081 0.18947374 -3.2099081 0.18947374 0 0 Z M-1.25 3.1328125 C-1.34823937 4.79710301 -1.37973631 6.46563181 -1.375 8.1328125 C-1.37757812 9.0403125 -1.38015625 9.9478125 -1.3828125 10.8828125 C-1.50173779 13.10247861 -1.50173779 13.10247861 -0.25 14.1328125 C2.75 14.29947917 2.75 14.29947917 5.75 14.1328125 C7.00173779 13.10247861 7.00173779 13.10247861 6.8828125 10.8828125 C6.88023438 9.9753125 6.87765625 9.0678125 6.875 8.1328125 C6.87757812 7.2253125 6.88015625 6.3178125 6.8828125 5.3828125 C7.00173779 3.16314639 7.00173779 3.16314639 5.75 2.1328125 C1.94759625 1.65545197 1.94759625 1.65545197 -1.25 3.1328125 Z " fill="#989FAE" transform="translate(5.25,-0.1328125)"/>
<path d="M0 0 C0.66 0 1.32 0 2 0 C2 0.66 2 1.32 2 2 C1.34 2 0.68 2 0 2 C0 1.34 0 0.68 0 0 Z " fill="#98A0AE" transform="translate(7,11)"/>
</svg>
