<svg width="16" height="16" viewBox="0 0 16 16" fill="none" xmlns="http://www.w3.org/2000/svg">
<g clip-path="url(#clip0_1287_685)">
<path d="M14.6666 8.00016H13.0133C12.7219 7.99954 12.4384 8.09437 12.206 8.27014C11.9736 8.44592 11.8052 8.69296 11.7266 8.9735L10.1599 14.5468C10.1498 14.5814 10.1288 14.6119 10.0999 14.6335C10.0711 14.6551 10.036 14.6668 9.99992 14.6668C9.96386 14.6668 9.92877 14.6551 9.89992 14.6335C9.87107 14.6119 9.85002 14.5814 9.83992 14.5468L6.15992 1.4535C6.14982 1.41888 6.12877 1.38847 6.09992 1.36683C6.07107 1.34519 6.03598 1.3335 5.99992 1.3335C5.96386 1.3335 5.92877 1.34519 5.89992 1.36683C5.87107 1.38847 5.85002 1.41888 5.83992 1.4535L4.27325 7.02683C4.19489 7.30627 4.02751 7.55251 3.79649 7.72817C3.56548 7.90384 3.28346 7.99933 2.99325 8.00016H1.33325" stroke="#6A7282" stroke-width="1.33333" stroke-linecap="round" stroke-linejoin="round"/>
</g>
<defs>
<clipPath id="clip0_1287_685">
<rect width="16" height="16" fill="white"/>
</clipPath>
</defs>
</svg>
