<?xml version="1.0" encoding="UTF-8"?>
<svg version="1.1" xmlns="http://www.w3.org/2000/svg" width="16" height="16">
<path d="M0 0 C1.27875 0.00257812 2.5575 0.00515625 3.875 0.0078125 C5.15375 0.00523438 6.4325 0.00265625 7.75 0 C10.875 0.1328125 10.875 0.1328125 11.875 1.1328125 C11.94679964 2.65209288 11.95892007 4.17448732 11.9375 5.6953125 C11.92847656 6.52160156 11.91945313 7.34789062 11.91015625 8.19921875 C11.89855469 8.83730469 11.88695313 9.47539062 11.875 10.1328125 C9.895 11.1228125 9.895 11.1228125 7.875 12.1328125 C7.875 12.7928125 7.875 13.4528125 7.875 14.1328125 C5.235 14.1328125 2.595 14.1328125 -0.125 14.1328125 C-0.125 13.4728125 -0.125 12.8128125 -0.125 12.1328125 C-1.445 11.4728125 -2.765 10.8128125 -4.125 10.1328125 C-4.15189216 8.65374358 -4.17134621 7.17453767 -4.1875 5.6953125 C-4.19910156 4.87160156 -4.21070313 4.04789062 -4.22265625 3.19921875 C-4.06247082 -0.19030496 -3.46692573 0.14734434 0 0 Z M-2.125 2.1328125 C-2.125 4.4428125 -2.125 6.7528125 -2.125 9.1328125 C1.835 9.1328125 5.795 9.1328125 9.875 9.1328125 C9.875 6.8228125 9.875 4.5128125 9.875 2.1328125 C5.915 2.1328125 1.955 2.1328125 -2.125 2.1328125 Z " fill="#989FAE" transform="translate(4.125,0.8671875)"/>
</svg>
