<?xml version="1.0" encoding="UTF-8"?>
<svg version="1.1" xmlns="http://www.w3.org/2000/svg" width="16" height="16">
<path d="M0 0 C0.66 0 1.32 0 2 0 C2 2.31 2 4.62 2 7 C0.35 7.33 -1.3 7.66 -3 8 C-3.144375 8.969375 -3.28875 9.93875 -3.4375 10.9375 C-4 14 -4 14 -5 15 C-7.33944736 14.71269945 -9.6739143 14.38063221 -12 14 C-12.625 11.6875 -12.625 11.6875 -13 9 C-11 6 -11 6 -7.625 5.0625 C-3.82370073 3.94832608 -2.57980187 2.86644653 0 0 Z M-10 8 C-10.33 8.99 -10.66 9.98 -11 11 C-9.02 11.99 -9.02 11.99 -7 13 C-6.34 12.01 -5.68 11.02 -5 10 C-5.33 9.34 -5.66 8.68 -6 8 C-7.32 8 -8.64 8 -10 8 Z " fill="#98A0AE" transform="translate(13,0)"/>
</svg>
