<svg width="16" height="16" viewBox="0 0 16 16" fill="none" xmlns="http://www.w3.org/2000/svg">
<path d="M6.44741 2.75711C6.48415 2.37067 6.66364 2.01181 6.95082 1.75063C7.238 1.48945 7.61223 1.34473 8.00041 1.34473C8.3886 1.34473 8.76283 1.48945 9.05001 1.75063C9.33719 2.01181 9.51668 2.37067 9.55341 2.75711C9.57549 3.00675 9.65739 3.24739 9.79217 3.45867C9.92695 3.66995 10.1107 3.84565 10.3277 3.97089C10.5448 4.09614 10.7888 4.16724 11.0392 4.17819C11.2896 4.18913 11.5389 4.1396 11.7661 4.03378C12.1188 3.87363 12.5185 3.85045 12.8874 3.96877C13.2563 4.08708 13.568 4.33841 13.7618 4.67385C13.9556 5.00928 14.0176 5.40482 13.9358 5.78349C13.8541 6.16215 13.6343 6.49685 13.3194 6.72244C13.1143 6.86634 12.9469 7.05751 12.8314 7.27979C12.7158 7.50207 12.6554 7.74891 12.6554 7.99944C12.6554 8.24997 12.7158 8.49681 12.8314 8.71909C12.9469 8.94137 13.1143 9.13254 13.3194 9.27644C13.6343 9.50203 13.8541 9.83673 13.9358 10.2154C14.0176 10.5941 13.9556 10.9896 13.7618 11.325C13.568 11.6605 13.2563 11.9118 12.8874 12.0301C12.5185 12.1484 12.1188 12.1253 11.7661 11.9651C11.5389 11.8593 11.2896 11.8097 11.0392 11.8207C10.7888 11.8316 10.5448 11.9027 10.3277 12.028C10.1107 12.1532 9.92695 12.3289 9.79217 12.5402C9.65739 12.7515 9.57549 12.9921 9.55341 13.2418C9.51668 13.6282 9.33719 13.9871 9.05001 14.2483C8.76283 14.5094 8.3886 14.6542 8.00041 14.6542C7.61223 14.6542 7.238 14.5094 6.95082 14.2483C6.66364 13.9871 6.48415 13.6282 6.44741 13.2418C6.42538 12.992 6.34348 12.7513 6.20866 12.54C6.07384 12.3286 5.89006 12.1528 5.6729 12.0276C5.45574 11.9023 5.21159 11.8313 4.96113 11.8204C4.71067 11.8095 4.46128 11.8591 4.23408 11.9651C3.88134 12.1253 3.48163 12.1484 3.11275 12.0301C2.74386 11.9118 2.4322 11.6605 2.2384 11.325C2.04461 10.9896 1.98256 10.5941 2.06432 10.2154C2.14608 9.83673 2.36581 9.50203 2.68075 9.27644C2.88583 9.13254 3.05323 8.94137 3.16881 8.71909C3.28438 8.49681 3.34472 8.24997 3.34472 7.99944C3.34472 7.74891 3.28438 7.50207 3.16881 7.27979C3.05323 7.05751 2.88583 6.86634 2.68075 6.72244C2.36626 6.49674 2.14691 6.16217 2.06535 5.78376C1.98378 5.40535 2.04582 5.01014 2.2394 4.67492C2.43299 4.3397 2.74429 4.08843 3.11281 3.96994C3.48133 3.85144 3.88074 3.8742 4.23341 4.03378C4.46059 4.1396 4.70991 4.18913 4.96028 4.17819C5.21065 4.16724 5.4547 4.09614 5.67177 3.97089C5.88884 3.84565 6.07254 3.66995 6.20732 3.45867C6.34211 3.24739 6.424 3.00675 6.44608 2.75711" stroke="#185ADB" stroke-width="1.33333" stroke-linecap="round" stroke-linejoin="round"/>
<path d="M8 10C9.10457 10 10 9.10457 10 8C10 6.89543 9.10457 6 8 6C6.89543 6 6 6.89543 6 8C6 9.10457 6.89543 10 8 10Z" stroke="#185ADB" stroke-width="1.33333" stroke-linecap="round" stroke-linejoin="round"/>
</svg>
