<?xml version="1.0" encoding="UTF-8"?>
<svg version="1.1" xmlns="http://www.w3.org/2000/svg" width="90" height="90">
<path d="M0 0 C0.18163773 4.93535661 -0.31311523 8.85089614 -1.82006836 13.54614258 C-2.21725571 14.80046585 -2.61444305 16.05478912 -3.02366638 17.34712219 C-3.46212758 18.69634456 -3.90085975 20.04547889 -4.33984375 21.39453125 C-4.78668928 22.79194378 -5.23268536 24.18962819 -5.6778717 25.58757019 C-6.84719481 29.25082274 -8.02887097 32.909977 -9.21295166 36.56848145 C-10.17961478 39.56236032 -11.13744851 42.5590281 -12.09484005 45.55588245 C-13.2361519 49.12801552 -14.38111143 52.69897437 -15.52734375 56.26953125 C-15.7461363 56.95118662 -15.96492886 57.63284199 -16.19035149 58.33515358 C-16.80847035 60.25767154 -17.42943418 62.1792741 -18.05053711 64.10083008 C-18.40361435 65.19446365 -18.75669159 66.28809723 -19.12046814 67.41487122 C-20 70 -20 70 -21 72 C-23.65234375 72.4140625 -23.65234375 72.4140625 -27 72 C-29.26251788 70.09737605 -30.86565148 67.78108763 -32.5625 65.375 C-33.47966645 64.13222 -34.3976296 62.89002756 -35.31640625 61.6484375 C-35.7561377 61.03581055 -36.19586914 60.42318359 -36.64892578 59.79199219 C-37.98042463 58.02596371 -39.41327021 56.42257154 -40.90234375 54.7890625 C-43 52 -43 52 -42.80883789 50.05615234 C-41.89154135 47.72428653 -40.78066814 46.21864379 -39.15625 44.3125 C-38.57311035 43.61890381 -37.9899707 42.92530762 -37.38916016 42.21069336 C-36.7657373 41.48116455 -36.14231445 40.75163574 -35.5 40 C-29.75321221 33.16163126 -24.25875997 26.22036091 -19 19 C-21.00153029 20.56056815 -23.00112635 22.12353442 -25 23.6875 C-25.6192334 24.16993164 -26.2384668 24.65236328 -26.87646484 25.14941406 C-30.42247148 27.92577909 -33.91369291 30.75065722 -37.3515625 33.66015625 C-38.42083984 34.5569812 -38.42083984 34.5569812 -39.51171875 35.47192383 C-40.90592674 36.64498492 -42.29160915 37.82826432 -43.66796875 39.0222168 C-44.62509766 39.82332886 -44.62509766 39.82332886 -45.6015625 40.640625 C-46.16182129 41.12047852 -46.72208008 41.60033203 -47.29931641 42.09472656 C-49 43 -49 43 -50.95996094 42.84277344 C-53.38552509 41.84073329 -55.03641032 40.57185656 -57.0390625 38.875 C-57.78414062 38.25109375 -58.52921875 37.6271875 -59.296875 36.984375 C-60.06515625 36.32953125 -60.8334375 35.6746875 -61.625 35 C-63.15753305 33.70676613 -64.69132686 32.41502439 -66.2265625 31.125 C-66.90283691 30.55007812 -67.57911133 29.97515625 -68.27587891 29.3828125 C-69.96125348 27.93156348 -69.96125348 27.93156348 -72 27 C-72 25.02 -72 23.04 -72 21 C-57.13805637 15.96218417 -42.23532722 11.04424337 -27.29156494 6.2545166 C-25.60369105 5.71192925 -23.91694772 5.1658117 -22.23138428 4.61608887 C-19.83959371 3.8370475 -17.44391014 3.07132133 -15.046875 2.30859375 C-14.33739716 2.07464401 -13.62791931 1.84069427 -12.89694214 1.59965515 C-8.37886151 0.18189445 -4.66891028 -0.22477403 0 0 Z " fill="#D5DBDB" transform="translate(81,9)"/>
</svg>
